<svg width="386" height="186" viewBox="0 0 386 186" fill="none" xmlns="http://www.w3.org/2000/svg">
<path d="M186.881 59.9315L164.785 22.7381C161.699 17.5423 161.536 12.8324 165.112 8.44482C155.366 9.25787 148.541 23.7099 156.174 31.0177L186.881 59.9266V59.9315Z" fill="#F5F5F5"/>
<path d="M179.571 15.2651L192.243 62.3642L204.916 15.2651C206.701 8.60676 200.368 0 192.243 0C184.119 0 177.786 8.60676 179.571 15.2651Z" fill="#F5F5F5"/>
<path d="M148.375 43.683L185.092 62.0367L154.55 33.1278C151.301 30.044 149.352 25.9835 151.137 19.3252C142.691 22.8997 138.465 38.8143 148.375 43.6878V43.683Z" fill="#F5F5F5"/>
<path d="M166.897 21.2742L188.993 58.6263L177.62 15.9148C175.993 9.90593 178.106 5.8455 181.518 2.43455C176.643 1.1356 159.095 8.12108 166.897 21.2742Z" fill="#F5F5F5"/>
<path d="M147.399 46.13C139.602 42.2332 140.574 35.7384 140.574 33.7852C131.314 42.0696 134.077 56.5216 144.15 58.1477L184.117 64.4837L147.399 46.13Z" fill="#F5F5F5"/>
<path d="M219.7 22.7333L197.604 59.9266L228.31 31.0177C235.948 23.7099 229.123 9.25306 219.372 8.44482C222.948 12.8276 222.785 17.5375 219.7 22.7381V22.7333Z" fill="#F5F5F5"/>
<path d="M229.937 33.1326L199.395 62.0415L236.112 43.6878C246.022 38.8143 241.801 22.8997 233.35 19.3252C235.135 25.9835 233.186 30.044 229.937 33.1278V33.1326Z" fill="#F5F5F5"/>
<path d="M243.908 33.7852C243.908 35.7336 244.885 42.2283 237.083 46.13L200.365 64.4837L240.332 58.1477C250.405 56.5216 253.168 42.0696 243.908 33.7852Z" fill="#F5F5F5"/>
<path d="M206.863 15.9148L195.49 58.6263L217.586 21.2742C225.383 8.12108 207.84 1.1356 202.965 2.43455C206.377 5.8455 208.49 9.90593 206.863 15.9148Z" fill="#F5F5F5"/>
<path d="M192.241 69.6787C192.078 70.0059 189.479 81.2105 172.744 85.1074H211.738C195.004 81.2105 192.405 70.0059 192.241 69.6787Z" fill="#F5F5F5"/>
<path d="M254.992 132.605C254.992 120.231 248.407 111.692 238.228 111.692C228.049 111.692 221.465 119.861 221.465 132.605C221.465 145.349 228.049 154.004 238.228 154.004C248.407 154.004 254.992 144.979 254.992 132.605ZM238.228 151.935C230.176 151.935 226.894 145.782 226.894 132.605C226.894 120.409 230.181 113.828 238.228 113.828C246.275 113.828 249.139 120.409 249.139 132.605C249.139 145.777 246.275 151.935 238.228 151.935Z" fill="#F5F5F5"/>
<path d="M343.65 111.793H336.17C337.258 113.371 338.432 116.691 338.846 124.398L339.953 145.417L312.029 111.798H308.371C309.473 113.391 310.383 116.614 310.383 124.475V140.75C310.383 148.612 309.473 151.849 308.371 153.427H316.409C315.393 151.955 314.185 148.968 313.699 142.333L313.593 140.741V140.794L312.255 119.804L339.987 153.422H343.645C342.543 151.83 341.633 148.607 341.633 140.746V124.47C341.633 116.604 342.548 113.371 343.645 111.793H343.65Z" fill="#F5F5F5"/>
<path d="M69.1751 133.883V140.835C69.1751 148.701 68.2654 151.929 67.1633 153.512H76.4281C75.3404 151.934 74.4259 148.711 74.4163 140.902V124.487C74.4163 116.684 75.3308 113.461 76.4233 111.883H67.1633C68.2654 113.47 69.1751 116.699 69.1751 124.56V131.454H48.2101V124.56C48.2101 116.699 49.1197 113.47 50.2219 111.883H40.9618C42.0544 113.466 42.9688 116.684 42.9688 124.487V140.902C42.9592 148.711 42.0447 151.934 40.957 153.512H50.2219C49.1197 151.929 48.2101 148.701 48.2101 140.835V133.883H69.1751Z" fill="#F5F5F5"/>
<path d="M15.6949 153.531H20.7195C19.6655 152.006 18.7751 148.956 18.7126 141.711V114.077C26.5768 114.077 29.8015 114.995 31.3897 116.088V111.883H0V116.088C1.58826 114.991 4.8129 114.077 12.6772 114.077V141.711C12.6146 148.956 11.7242 152.006 10.6702 153.536H15.6949V153.531Z" fill="#F5F5F5"/>
<path d="M132.725 153.517H141.989C140.887 151.924 139.978 148.701 139.978 140.84V124.56C139.978 116.694 140.887 113.461 141.989 111.883H132.725C133.827 113.47 134.736 116.699 134.736 124.56V140.84C134.736 148.701 133.827 151.939 132.725 153.517Z" fill="#F5F5F5"/>
<path d="M383.015 135.164H370.631V137.536H376.917C377.932 137.536 378.755 138.359 378.755 139.374C378.755 144.676 376.864 151.931 367.354 151.931C361.626 151.931 356.385 144.863 356.385 132.663C356.385 120.462 360.404 113.823 366.81 113.823C369.847 113.823 372.027 115.112 373.408 117.412C374.828 119.981 374.818 124.138 373.206 125.716H379.79V124.499C379.79 118.774 377.35 111.692 366.81 111.692C358.036 111.692 350.961 119.923 350.961 132.668C350.961 145.412 357.304 154.004 367.349 154.004C371.68 154.004 376.912 152.479 379.602 146.99L381.494 153.701H383.015V147.841C383.015 139.975 383.924 136.742 385.027 135.164H383.01H383.015Z" fill="#F5F5F5"/>
<path d="M205.005 133.883V140.835C205.005 148.701 204.095 151.929 202.993 153.512H212.258C211.17 151.934 210.256 148.711 210.246 140.902V124.487C210.246 116.684 211.161 113.461 212.253 111.883H202.993C204.095 113.47 205.005 116.699 205.005 124.56V131.454H184.04V124.56C184.04 116.699 184.95 113.47 186.052 111.883H176.792C177.884 113.466 178.799 116.684 178.799 124.487V140.902C178.789 148.711 177.875 151.934 176.787 153.512H186.052C184.95 151.929 184.04 148.701 184.04 140.835V133.883H205.005Z" fill="#F5F5F5"/>
<path d="M100.734 109.949H99.9691C101.331 119.672 89.6358 145.853 89.6358 145.853C87.9417 149.341 86.2668 151.953 84.1973 153.517H94.1407C93.3273 152.136 93.3514 149.534 94.8434 145.887L101.456 130.771L101.437 130.785C105.1 122.602 100.739 109.949 100.739 109.949H100.734Z" fill="#F5F5F5"/>
<path d="M109.138 109.949H109.903C108.541 119.672 120.237 145.853 120.237 145.853C121.931 149.341 123.606 151.953 125.675 153.517H115.732C116.545 152.136 116.521 149.534 115.029 145.887L108.416 130.771L108.435 130.785C104.773 122.602 109.133 109.949 109.133 109.949H109.138Z" fill="#F5F5F5"/>
<path d="M276.203 109.949H275.438C276.8 119.672 265.105 145.853 265.105 145.853C263.41 149.341 261.736 151.953 259.666 153.517H269.609C268.796 152.136 268.82 149.534 270.312 145.887L276.925 130.771L276.906 130.785C280.568 122.602 276.208 109.949 276.208 109.949H276.203Z" fill="#F5F5F5"/>
<path d="M284.607 109.949H285.372C284.01 119.672 295.705 145.853 295.705 145.853C297.4 149.341 299.074 151.953 301.144 153.517H291.201C292.014 152.136 291.99 149.534 290.498 145.887L283.885 130.771L283.904 130.785C280.242 122.602 284.602 109.949 284.602 109.949H284.607Z" fill="#F5F5F5"/>
<path d="M104.541 170.268H111.789C112.68 170.268 113.488 170.446 114.22 170.797C114.951 171.148 115.534 171.658 115.972 172.322C116.41 172.991 116.626 173.789 116.626 174.718C116.626 175.646 116.405 176.474 115.972 177.147C115.534 177.821 114.951 178.336 114.22 178.687C113.488 179.038 112.675 179.216 111.789 179.216H106.519V185.754H104.541V170.268ZM106.524 171.903V177.58H111.452C112.083 177.58 112.641 177.47 113.118 177.248C113.599 177.027 113.974 176.705 114.249 176.281C114.518 175.858 114.658 175.348 114.658 174.742C114.658 173.823 114.359 173.12 113.767 172.635C113.171 172.149 112.4 171.903 111.452 171.903H106.524ZM109.835 178.523H112.049L116.438 185.427V185.749H114.35L109.83 178.523H109.835Z" fill="#F5F5F5"/>
<path d="M126.104 170.268H136.966V171.903H128.082V176.998H135.893V178.634H128.082V184.118H137.183V185.754H126.104V170.268Z" fill="#F5F5F5"/>
<path d="M146.214 174.25C146.214 173.417 146.454 172.686 146.936 172.056C147.417 171.426 148.101 170.93 148.991 170.574C149.881 170.218 150.926 170.035 152.134 170.035C153.342 170.035 154.405 170.223 155.296 170.593C156.186 170.968 156.889 171.493 157.413 172.176C157.938 172.859 158.241 173.677 158.328 174.639V174.962H156.436C156.393 174.144 156.177 173.489 155.792 172.994C155.406 172.498 154.896 172.142 154.266 171.921C153.635 171.7 152.933 171.589 152.158 171.589C151.383 171.589 150.699 171.69 150.103 171.892C149.506 172.094 149.039 172.393 148.702 172.787C148.365 173.182 148.197 173.658 148.197 174.216C148.197 174.774 148.341 175.178 148.625 175.505C148.914 175.837 149.313 176.102 149.828 176.299C150.343 176.501 150.955 176.679 151.657 176.838L153.27 177.203C154.271 177.434 155.147 177.713 155.893 178.041C156.639 178.372 157.221 178.81 157.635 179.364C158.049 179.917 158.261 180.643 158.261 181.548C158.261 182.452 158.02 183.217 157.539 183.891C157.057 184.564 156.374 185.084 155.483 185.449C154.593 185.815 153.52 185.998 152.254 185.998C150.988 185.998 149.91 185.805 148.962 185.43C148.014 185.055 147.253 184.502 146.681 183.785C146.108 183.068 145.747 182.202 145.607 181.182V180.86H147.499C147.6 181.735 147.869 182.438 148.317 182.967C148.76 183.496 149.323 183.876 150.006 184.107C150.69 184.338 151.431 184.449 152.235 184.449C153.039 184.449 153.741 184.343 154.343 184.136C154.944 183.929 155.416 183.616 155.763 183.203C156.104 182.789 156.278 182.279 156.278 181.678C156.278 181.076 156.124 180.581 155.816 180.234C155.508 179.893 155.079 179.623 154.535 179.426C153.991 179.229 153.366 179.056 152.663 178.897L151.051 178.531C150.074 178.3 149.222 178.016 148.49 177.67C147.759 177.324 147.196 176.876 146.801 176.328C146.406 175.775 146.209 175.087 146.209 174.254L146.214 174.25Z" fill="#F5F5F5"/>
<path d="M167.883 170.268H169.86V185.754H167.883V170.268ZM167.883 171.903V170.268H169.86V171.903H167.883ZM169.86 184.118V185.754H167.883V184.118H169.86Z" fill="#F5F5F5"/>
<path d="M180.254 170.268H185.76C187.295 170.268 188.633 170.58 189.774 171.201C190.914 171.826 191.8 172.712 192.431 173.866C193.061 175.021 193.379 176.402 193.379 178.008C193.379 178.971 193.258 179.851 193.023 180.654C192.787 181.458 192.45 182.175 192.012 182.805C191.574 183.435 191.044 183.969 190.419 184.407C189.793 184.845 189.09 185.177 188.311 185.408C187.531 185.639 186.679 185.754 185.76 185.754H180.254V170.268ZM182.232 171.903V184.118H185.741C186.602 184.118 187.377 183.979 188.075 183.7C188.773 183.421 189.365 183.017 189.86 182.497C190.356 181.973 190.736 181.338 191.001 180.582C191.266 179.827 191.401 178.971 191.401 178.013C191.401 176.738 191.165 175.646 190.703 174.732C190.236 173.823 189.581 173.12 188.734 172.635C187.887 172.149 186.891 171.903 185.745 171.903H182.237H182.232Z" fill="#F5F5F5"/>
<path d="M202.949 170.268H213.817V171.903H204.932V176.998H212.743V178.634H204.932V184.118H214.033V185.754H202.954V170.268H202.949Z" fill="#F5F5F5"/>
<path d="M223.496 170.268H225.907L233.651 182.935H233.868V170.268H235.783V185.754H233.372L225.647 173.087H225.431V185.754H223.496V170.268Z" fill="#F5F5F5"/>
<path d="M245.375 178.006C245.375 177 245.5 176.082 245.75 175.244C246.001 174.407 246.357 173.662 246.814 173.017C247.271 172.372 247.82 171.824 248.46 171.372C249.095 170.919 249.808 170.578 250.592 170.352C251.372 170.121 252.219 170.005 253.119 170.005C254.236 170.005 255.203 170.159 256.012 170.467C256.82 170.775 257.494 171.179 258.023 171.67C258.553 172.165 258.962 172.704 259.251 173.282C259.539 173.859 259.717 174.427 259.79 174.97V175.293H257.917C257.874 174.893 257.759 174.48 257.576 174.056C257.388 173.633 257.109 173.234 256.738 172.863C256.363 172.493 255.886 172.185 255.299 171.949C254.712 171.713 253.985 171.593 253.124 171.593C252.262 171.593 251.497 171.737 250.79 172.021C250.077 172.31 249.471 172.733 248.961 173.291C248.45 173.849 248.056 174.523 247.777 175.312C247.497 176.101 247.358 176.996 247.358 178.001C247.358 179.334 247.603 180.484 248.089 181.441C248.576 182.403 249.254 183.134 250.121 183.644C250.987 184.154 251.988 184.409 253.124 184.409C253.985 184.409 254.712 184.289 255.309 184.053C255.906 183.818 256.392 183.51 256.772 183.13C257.152 182.75 257.446 182.345 257.653 181.912C257.86 181.484 257.994 181.08 258.052 180.71H259.924V181.032C259.838 181.547 259.65 182.095 259.356 182.668C259.063 183.24 258.644 183.779 258.096 184.279C257.552 184.78 256.863 185.193 256.04 185.516C255.217 185.838 254.245 186.002 253.124 186.002C251.617 186.002 250.284 185.684 249.124 185.044C247.964 184.405 247.05 183.49 246.381 182.302C245.712 181.114 245.38 179.68 245.38 178.001L245.375 178.006Z" fill="#F5F5F5"/>
<path d="M269.41 170.268H280.278V171.903H271.393V176.998H279.204V178.634H271.393V184.118H280.494V185.754H269.415V170.268H269.41Z" fill="#F5F5F5"/>
</svg>
